<?xml version="1.0" encoding="UTF-8" standalone="no"?>
<!-- Created with Inkscape (http://www.inkscape.org/) -->

<svg
   xmlns:dc="http://purl.org/dc/elements/1.1/"
   xmlns:cc="http://creativecommons.org/ns#"
   xmlns:rdf="http://www.w3.org/1999/02/22-rdf-syntax-ns#"
   xmlns:svg="http://www.w3.org/2000/svg"
   xmlns="http://www.w3.org/2000/svg"
   xmlns:sodipodi="http://sodipodi.sourceforge.net/DTD/sodipodi-0.dtd"
   xmlns:inkscape="http://www.inkscape.org/namespaces/inkscape"
   id="svg2"
   version="1.1"
   inkscape:version="0.91 r13725"
   xml:space="preserve"
   width="310.75375"
   height="517.45874"
   viewBox="0 0 310.75375 517.45874"
   sodipodi:docname="fridge.svg"><metadata
     id="metadata8"><rdf:RDF><cc:Work
         rdf:about=""><dc:format>image/svg+xml</dc:format><dc:type
           rdf:resource="http://purl.org/dc/dcmitype/StillImage" /><dc:title></dc:title></cc:Work></rdf:RDF></metadata><defs
     id="defs6"><clipPath
       clipPathUnits="userSpaceOnUse"
       id="clipPath16"><path
         d="m 137.698,456.983 c -6.626,0 -11.999,-5.373 -11.999,-12 l 0,0 0,-389.966 c 0,-6.628 5.373,-12.001 11.999,-12.001 l 0,0 224.603,0 c 6.628,0 12.001,5.373 12.001,12.001 l 0,0 0,389.966 c 0,6.627 -5.373,12 -12.001,12 l 0,0 -224.603,0 z"
         id="path18"
         inkscape:connector-curvature="0" /></clipPath><radialGradient
       fx="0"
       fy="0"
       cx="0"
       cy="0"
       r="1"
       gradientUnits="userSpaceOnUse"
       gradientTransform="matrix(170.72354,0,0,-170.72354,250,250)"
       spreadMethod="pad"
       id="radialGradient24"><stop
         style="stop-opacity:1;stop-color:#a7cb91"
         offset="0"
         id="stop26" /><stop
         style="stop-opacity:1;stop-color:#92b19f"
         offset="1"
         id="stop28" /></radialGradient><clipPath
       clipPathUnits="userSpaceOnUse"
       id="clipPath36"><path
         d="m 311.297,310.792 c -1.504,0 -2.723,-0.102 -2.723,-0.23 l 0,0 0,-7.494 c 0,-0.127 1.219,-0.231 2.723,-0.231 l 0,0 50.978,0 c 1.504,0 2.725,0.104 2.725,0.231 l 0,0 0,7.494 c 0,0.128 -1.221,0.23 -2.725,0.23 l 0,0 -50.978,0 z"
         id="path38"
         inkscape:connector-curvature="0" /></clipPath><linearGradient
       x1="0"
       y1="0"
       x2="1"
       y2="0"
       gradientUnits="userSpaceOnUse"
       gradientTransform="matrix(56.425781,0,0,-56.425781,308.57422,306.81494)"
       spreadMethod="pad"
       id="linearGradient44"><stop
         style="stop-opacity:1;stop-color:#58595b"
         offset="0"
         id="stop46" /><stop
         style="stop-opacity:1;stop-color:#58595b"
         offset="0.0752688"
         id="stop48" /><stop
         style="stop-opacity:1;stop-color:#ffffff"
         offset="0.483871"
         id="stop50" /><stop
         style="stop-opacity:1;stop-color:#6d6e71"
         offset="1"
         id="stop52" /></linearGradient><clipPath
       clipPathUnits="userSpaceOnUse"
       id="clipPath60"><path
         d="M 0,500 500,500 500,0 0,0 0,500 Z"
         id="path62"
         inkscape:connector-curvature="0" /></clipPath><clipPath
       clipPathUnits="userSpaceOnUse"
       id="clipPath76"><path
         d="m 311.297,387.793 c -1.504,0 -2.723,-0.103 -2.723,-0.231 l 0,0 0,-7.494 c 0,-0.127 1.219,-0.23 2.723,-0.23 l 0,0 50.978,0 c 1.504,0 2.725,0.103 2.725,0.23 l 0,0 0,7.494 c 0,0.128 -1.221,0.231 -2.725,0.231 l 0,0 -50.978,0 z"
         id="path78"
         inkscape:connector-curvature="0" /></clipPath><linearGradient
       x1="0"
       y1="0"
       x2="1"
       y2="0"
       gradientUnits="userSpaceOnUse"
       gradientTransform="matrix(56.425781,0,0,-56.425781,308.57422,383.81543)"
       spreadMethod="pad"
       id="linearGradient84"><stop
         style="stop-opacity:1;stop-color:#58595b"
         offset="0"
         id="stop86" /><stop
         style="stop-opacity:1;stop-color:#58595b"
         offset="0.0752688"
         id="stop88" /><stop
         style="stop-opacity:1;stop-color:#ffffff"
         offset="0.483871"
         id="stop90" /><stop
         style="stop-opacity:1;stop-color:#6d6e71"
         offset="1"
         id="stop92" /></linearGradient></defs><sodipodi:namedview
     pagecolor="#ffffff"
     bordercolor="#666666"
     borderopacity="1"
     objecttolerance="10"
     gridtolerance="10"
     guidetolerance="10"
     inkscape:pageopacity="0"
     inkscape:pageshadow="2"
     inkscape:window-width="733"
     inkscape:window-height="480"
     id="namedview4"
     showgrid="false"
     fit-margin-top="0"
     fit-margin-left="0"
     fit-margin-right="0"
     fit-margin-bottom="0"
     inkscape:zoom="0.3776"
     inkscape:cx="155.37625"
     inkscape:cy="258.73"
     inkscape:window-x="0"
     inkscape:window-y="0"
     inkscape:window-maximized="0"
     inkscape:current-layer="g10" /><g
     id="g10"
     inkscape:groupmode="layer"
     inkscape:label="fridge-1597106"
     transform="matrix(1.25,0,0,-1.25,-157.12375,571.22875)"><g
       id="g12"><g
         id="g14"
         clip-path="url(#clipPath16)"><g
           id="g20"><g
             id="g22"><path
               d="m 137.698,456.983 c -6.626,0 -11.999,-5.373 -11.999,-12 l 0,0 0,-389.966 c 0,-6.628 5.373,-12.001 11.999,-12.001 l 0,0 224.603,0 c 6.628,0 12.001,5.373 12.001,12.001 l 0,0 0,389.966 c 0,6.627 -5.373,12 -12.001,12 l 0,0 -224.603,0 z"
               style="fill:url(#radialGradient24);stroke:none"
               id="path30"
               inkscape:connector-curvature="0" /></g></g></g></g><g
       id="g32"><g
         id="g34"
         clip-path="url(#clipPath36)"><g
           id="g40"><g
             id="g42"><path
               d="m 311.297,310.792 c -1.504,0 -2.723,-0.102 -2.723,-0.23 l 0,0 0,-7.494 c 0,-0.127 1.219,-0.231 2.723,-0.231 l 0,0 50.978,0 c 1.504,0 2.725,0.104 2.725,0.231 l 0,0 0,7.494 c 0,0.128 -1.221,0.23 -2.725,0.23 l 0,0 -50.978,0 z"
               style="fill:url(#linearGradient44);stroke:none"
               id="path54"
               inkscape:connector-curvature="0" /></g></g></g></g><g
       id="g56"><g
         id="g58"
         clip-path="url(#clipPath60)"><g
           id="g64"
           transform="translate(125.9775,318.6982)"><path
             d="M 0,0 248.045,0"
             style="fill:none;stroke:#495b4b;stroke-width:2;stroke-linecap:butt;stroke-linejoin:miter;stroke-miterlimit:10;stroke-dasharray:none;stroke-opacity:1"
             id="path66"
             inkscape:connector-curvature="0" /></g><g
           id="g68"
           transform="translate(125.9775,318.6982)"><path
             d="M 0,0 248.045,0"
             style="fill:none;stroke:#495b4b;stroke-width:2;stroke-linecap:butt;stroke-linejoin:miter;stroke-miterlimit:10;stroke-dasharray:none;stroke-opacity:1"
             id="path70"
             inkscape:connector-curvature="0" /></g></g></g><g
       id="g72"><g
         id="g74"
         clip-path="url(#clipPath76)"><g
           id="g80"><g
             id="g82"><path
               d="m 311.297,387.793 c -1.504,0 -2.723,-0.103 -2.723,-0.231 l 0,0 0,-7.494 c 0,-0.127 1.219,-0.23 2.723,-0.23 l 0,0 50.978,0 c 1.504,0 2.725,0.103 2.725,0.23 l 0,0 0,7.494 c 0,0.128 -1.221,0.231 -2.725,0.231 l 0,0 -50.978,0 z"
               style="fill:url(#linearGradient84);stroke:none"
               id="path94"
               inkscape:connector-curvature="0" /></g></g></g></g></g></svg>